# xmcd CD database file
#
# Track frame offsets:
#	182
#	22890
#	46395
#
# Disc length: 909 seconds
#
# Revision: 0
# Processed by: cddbd v1.5.1PL0 Copyright (c) Steve Scherf et al.
# Submitted via: CDex 1.51
#
DISCID=19038b03
DTITLE=Bel Canto - Unicorn, limited edition single CD
DYEAR=1992
DGENRE=New Age
TTITLE0=Keena Maareme
TTITLE1=Beyond The Within
TTITLE2=The Suffering
EXTD=YEAR: 1992
EXTT0=
EXTT1=
EXTT2=
PLAYORDER=
